<?xml version="1.0" encoding="UTF-8"?>
<!DOCTYPE svg PUBLIC "-//W3C//DTD SVG 1.1//EN" "http://www.w3.org/Graphics/SVG/1.1/DTD/svg11.dtd">
<!-- Creator: CorelDRAW 2021 (64-Bit) -->
<svg xmlns="http://www.w3.org/2000/svg" xml:space="preserve" width="2.66666in" height="2.66666in" version="1.1" style="shape-rendering:geometricPrecision; text-rendering:geometricPrecision; image-rendering:optimizeQuality; fill-rule:evenodd; clip-rule:evenodd"
viewBox="0 0 2666.66 2666.66"
 xmlns:xlink="http://www.w3.org/1999/xlink"
 xmlns:xodm="http://www.corel.com/coreldraw/odm/2003">
 <defs>
  <style type="text/css">
   <![CDATA[
    .fil0 {fill:black}
   ]]>
  </style>
 </defs>
 <g id="Layer_x0020_1">
  <metadata id="CorelCorpID_0Corel-Layer"/>
  <path class="fil0" d="M1333.33 505.3l0 0c455.42,0 828.03,372.61 828.03,828.02l0 0c0,455.41 -372.61,828.02 -828.03,828.02l0 0c-455.41,0 -828.03,-372.61 -828.03,-828.02l0 -0c0,-455.41 372.61,-828.02 828.03,-828.02zm-442.28 1247.67l67.94 0 310.05 -333.9 249.73 333.9c85.61,0 171.22,0 256.83,0l-364.31 -487.09 327.04 -352.2 -67.94 0 -289.41 311.67 -233.11 -311.67c-85.61,0 -171.22,0 -256.83,0l347.68 464.86 -347.68 374.43zm229.41 -785.1l546.67 730.91 -120.94 0 -546.67 -730.91 120.94 0z"/>
 </g>
</svg>
